<svg xmlns="http://www.w3.org/2000/svg" viewBox="0 0 496.69 92.07"><defs><style>.cls-1{fill:#f4e19f;}</style></defs><g id="Layer_2" data-name="Layer 2"><g id="Layer_1-2" data-name="Layer 1"><path class="cls-1" d="M4.14,84.42l.45-.36a11.5,11.5,0,0,1-1.07,1.1A113.91,113.91,0,0,0,16.76,71.48a10.39,10.39,0,0,0,2.33-2.83c0-.27-1.12.55-2.45,1.85-.3.27-.65.6-.89.78-2.11,1.64-4.55,3.77-7.2,6.17l1.62-1.34c-.77.69-1.53,1.37-2.34,2.18l.36-.2A55.49,55.49,0,0,0,.66,85.94c-1.45,2-.44,1.81,2.27-.5Z" transform="translate(0 -0.09)"/><path class="cls-1" d="M9.7,80.61,5,84.69l-.33.23.32.14,0,0c1.16-1.55,3.31-3.85,5.31-6l.7-.77a2.66,2.66,0,0,0,.53-.78c.06-.29-.68.25-1.66,1.19L8.76,79.77C5.94,82.33,1.7,86.55.59,88.44c-.24.43.17.25.35.28.05.26,1.19-.62,2.55-2a10.08,10.08,0,0,0,2.33-2.85l.72-.66-.49.6a26.24,26.24,0,0,1,2.29-2.75L9.66,79.7l-1.13.41-.66.76.19-.11c-1.26,1.45-2.43,2.82-3.85,4.37l-1.73,2c-.44.58-.29.63.32.14l.91-.75-.42.33,6-5.59a5.53,5.53,0,0,0,.78-.85C10.19,80.23,10,80.32,9.7,80.61Z" transform="translate(0 -0.09)"/><path class="cls-1" d="M3,87.39a14,14,0,0,0-1.09,1l-.16.22.66-.54C2.9,87.67,3.09,87.41,3,87.39Z" transform="translate(0 -0.09)"/><path class="cls-1" d="M1.76,88.6l-.28.23.2-.14.05,0Z" transform="translate(0 -0.09)"/><path class="cls-1" d="M88.77,6.28q-.12,16.24-.24,32.54a1.41,1.41,0,0,0,.06.53s0-.21,0-.46c.08-10.91.16-21.77.24-32.64a3.16,3.16,0,0,0,0-.82A3.67,3.67,0,0,0,88.77,6.28Z" transform="translate(0 -0.09)"/><path class="cls-1" d="M85.64,76.23c0-.2-.06-.19-.08,0a3.86,3.86,0,0,0,0,.68c0,.17.06.16.08,0A4,4,0,0,0,85.64,76.23Z" transform="translate(0 -0.09)"/><path class="cls-1" d="M83.18,74.44c-.05-1.18-.1-2.29-.19-3.28a3.33,3.33,0,0,1,0-.55c0,.07-.1-.15-.12-.57-.42-8.32-.59-17.26-.82-26.07A1,1,0,0,1,82,43.6a16.15,16.15,0,0,1-.17-3.11l0-1q.1-5.8.21-11.58c-.06-.78-.1-1.7-.11-2.69-.14-1.64-.28-3.29-.42-5a1.36,1.36,0,0,1-.12.35c-.11.14-.19-.08-.19-.48v-.59l-.08,1.85a2.11,2.11,0,0,1,0,.25c0,.6,0,1.22,0,1.84,0,2.54.08,5,.13,7.52q.11,4.77.22,9.47c.17,6.25.4,12.4.63,18.52a3.16,3.16,0,0,1,0,.69c0,.12-.06.1-.07-.12-.55-7.72-1.27-14.39-1.63-23.12-.09-2.19-.17-4.38-.26-6.57L80,26.64l-.06-1.57-.06-.36a11.6,11.6,0,0,0-.42-1.87l-.58.77c-.25.25-.5.53-.72.79l-.08.09,0,.05,0,0h0l-.08.09L76.48,26.1,73.67,29,62.24,40.86c-10.65,11-20.86,21.3-31.45,31.92-3.91,4-7.88,7.36-8.84,7.42-.58,0,.06-1.14,1.52-3l-1,1L20.9,79.7a36,36,0,0,1-3.8,3.15l-1.27.88c-1.79,1.07-4.41,3.08-6,3.88L10,87.2l-.32.24a7.47,7.47,0,0,1-2.13,1.35l-.08-.26a4.37,4.37,0,0,1,.82-1.94c-.1,0-.08-.21,0-.47-.8.45-1.29.56-1-.14-.42.32-.44.19,0-.31.14-.17.32-.36.5-.55h0c-.25.16-.33.21-.66.44l-.62.56L4.6,87.92C3.79,88.6,3.25,89,3.25,89c-1.13.51-1.13.51-1.14.25l.12-.2-.94.82-.36.26c-.11,0-.11,0-.24,0s-.09,0-.09,0c.29-.45.29-.45.28-.48a2.25,2.25,0,0,1,.17-.25l.63-.71L2.79,88l.14-.26.3-.13-.2,0,.52-.42-.61.47c1.14-1.08,1.14-1.08,1.58-1.52s.84-.87.88-.91a.15.15,0,0,1-.08,0L7.72,83,8,82.73a4.57,4.57,0,0,1,.53-.59l.62-.59.11-.14h0l.47-.55.1-.11h0l2.05-2.36,1-1-.33.26c-.21.16-.11-.08-.22,0-2.66,2.37-5.47,5.06-8.26,7.69a4.2,4.2,0,0,1-1.1.92c-.12,0,.18-.39.67-.89A226.34,226.34,0,0,1,21.56,67.52l4.57-4.38-.25.18,1.21-1.11.13-.12-1,.75-.65.58c-3.52,3.42-6.87,6.37-10.34,9.6-1.87,1.73-3.54,3.16-5.33,4.78-.45.43-.8.69-.8.58a3.91,3.91,0,0,1,.81-1c5.6-5.78,12.17-12.18,17.15-16.31,1-1,2.07-2,3-2.75l.05,0-.74.53c.8-.75,1.3-1.08,2-1.75l-.4.12C34.91,53.48,39,49.3,42.76,46l.42-.39c1.43-1.63,2.87-3.27,4.67-5.1L46,42.25c1.25-1.37,2.51-2.72,3.93-4.12A101.2,101.2,0,0,1,60.6,28.66L88.84.09l0,1.86A13.67,13.67,0,0,1,88.76,4c-.06.21-.11-.26-.12-1.11s0-1.48,0-2.22C81.52,7.94,74.36,15.26,67.2,22.61l8.14-7.94L85.84,4.29,88,2.07v.75c0,1.25,0,2.55,0,3.84,0,6.32,0,12.47,0,18.66,0,4.07,0,8.16.12,12.4.16,7.23.29,13.56.45,20.78.27,10.12.53,19.35.53,29.35a8.28,8.28,0,0,1-.24,2.72c-.16.16-.3-.8-.32-2.14-.47-20.86-1-41.35-1-63.16,0-3.42,0-6.78,0-10.12a.45.45,0,0,1-.06.15c-.09.09-.16-.14-.23-.59q0,5.45-.1,11c.18,7.35.35,14.71.26,22.55-.06,5.38-.24,10.26-.41,15.23.1,6.31.2,12.61.3,19a2.35,2.35,0,0,1,0,.61c0,.1,0,0-.07-.3-.19-4.38-.33-8.87-.46-13.4-.09.71-.22,1.14-.35,1.08s-.27-.61-.36-1.45V72c0,.63-.06,1.13-.13,1.11A2.66,2.66,0,0,1,85.8,72q0-6.28,0-12.56c-.07-5-.14-10-.2-15a5.37,5.37,0,0,1-.34,1.45h0c0,.78,0,1.56,0,2.33.39,14.21.61,28.76.53,43.43a1.15,1.15,0,0,1-.06.53,1,1,0,0,1,0-.48q0-6.65,0-13.24v0c0,.17-.06.21-.08,0a4,4,0,0,1,0-.69c0-.2.06-.18.08,0-.06-8.2-.19-16.34-.39-24.37,0,7.46,0,14.93,0,22.39l.12,2.44a2.48,2.48,0,0,1,0,.61c0,.07-.06-.1-.07-.33l0-.68c0,1.41-.15,2.5-.31,2.47a6.76,6.76,0,0,1-.3-2.75c0-3.93,0-7.84-.06-11.75l0-1.27-.08-1.28c-.08,6.08-.16,12.16-.23,18.19a2.45,2.45,0,0,1-.11,1,2,2,0,0,1-.11-.93c-.24-10.64-.4-21.41-.51-32.22-.26-3.56-.51-7.12-.77-10.74,0,.45,0,.92,0,1.38,0,11.76.73,21.73.88,33.12a1.57,1.57,0,0,1,0,.56s-.06-.17-.06-.45C83.45,67.57,83.2,62.5,83,57c-.15-4.57-.28-8.91-.48-13.16.07,8.68.39,17,.53,25.59a6.1,6.1,0,0,1,0,1,.48.48,0,0,1,0,.21c.08,1.07.14,2.24.19,3.44a2.45,2.45,0,0,1,0,.64C83.22,74.83,83.19,74.69,83.18,74.44ZM22.05,69.92l-.18.13.58-.5.92-.58ZM13.28,80h0l-.53.34Zm58.51-61.5c-3.23,3.22-6.47,6.38-9.76,9.46l2.3-2.36ZM15.1,75.57c.93-.76,1.71-1.31,2.44-1.82.54-.58,1.12-1.17,1.71-1.76L24,67.4c-.26.14.11-.22.29-.41l.56-.59-5,4.77C18.24,72.62,16.59,74.22,15.1,75.57ZM4,87.15l-.16.12.21-.4Zm-.33.63.25-.22A.39.39,0,0,1,3.65,87.78Zm2.25-2L5.55,86Zm4.18,1.14.38-1.28L10,87Z" transform="translate(0 -0.09)"/><path class="cls-1" d="M227.68,84.42l.45-.36a12.88,12.88,0,0,1-1.07,1.1,113,113,0,0,0,13.23-13.68,10.52,10.52,0,0,0,2.34-2.83c0-.27-1.12.55-2.45,1.85-.31.27-.66.6-.89.78-2.11,1.64-4.56,3.77-7.2,6.17l1.61-1.34c-.76.69-1.52,1.37-2.34,2.18l.37-.2a55.49,55.49,0,0,0-7.53,7.85c-1.45,2-.44,1.81,2.27-.5Z" transform="translate(0 -0.09)"/><path class="cls-1" d="M233.23,80.61l-4.7,4.08-.34.23.33.14v0c1.16-1.55,3.32-3.85,5.32-6l.69-.77a2.78,2.78,0,0,0,.54-.78c.06-.29-.69.25-1.66,1.19l-1.13,1.08c-2.82,2.56-7,6.78-8.16,8.67-.25.43.16.25.34.28.05.26,1.2-.62,2.55-2s2.4-2.61,2.34-2.85l.72-.66-.49.6a25.89,25.89,0,0,1,2.28-2.75l1.33-1.41-1.13.41-.66.76a1.79,1.79,0,0,1,.19-.11c-1.26,1.45-2.43,2.82-3.85,4.37l-1.74,2c-.43.58-.28.63.33.14l.91-.75-.42.33,6-5.59a5.53,5.53,0,0,0,.78-.85C233.73,80.23,233.56,80.32,233.23,80.61Z" transform="translate(0 -0.09)"/><path class="cls-1" d="M226.55,87.39a13.92,13.92,0,0,0-1.1,1l-.15.22c.17-.15.42-.34.66-.54C226.44,87.67,226.63,87.41,226.55,87.39Z" transform="translate(0 -0.09)"/><path class="cls-1" d="M225.3,88.6l-.28.23.2-.14.05,0Z" transform="translate(0 -0.09)"/><path class="cls-1" d="M312.3,6.28q-.1,16.24-.23,32.54a1.53,1.53,0,0,0,.05.53s.06-.21.06-.46c.08-10.91.16-21.77.24-32.64a3.16,3.16,0,0,0-.05-.82A4,4,0,0,0,312.3,6.28Z" transform="translate(0 -0.09)"/><path class="cls-1" d="M309.18,76.23c0-.2-.06-.19-.08,0a3.86,3.86,0,0,0,0,.68c0,.17.06.16.08,0A4,4,0,0,0,309.18,76.23Z" transform="translate(0 -0.09)"/><path class="cls-1" d="M306.71,74.44c0-1.18-.09-2.29-.18-3.28a5,5,0,0,1,0-.55c0,.07-.09-.15-.11-.57-.43-8.32-.59-17.26-.82-26.07a1.19,1.19,0,0,1-.12-.37,18,18,0,0,1-.17-3.11l0-1c.07-3.87.15-7.73.22-11.58-.06-.78-.1-1.7-.11-2.69-.14-1.64-.28-3.29-.42-5a1,1,0,0,1-.13.35c-.11.14-.19-.08-.18-.48v-.59l-.09,1.85a2.09,2.09,0,0,1,0,.25v1.84c.05,2.54.09,5,.13,7.52.08,3.18.15,6.34.23,9.47.17,6.25.39,12.4.63,18.52a3.16,3.16,0,0,1,0,.69c0,.12-.06.1-.08-.12-.54-7.72-1.26-14.39-1.62-23.12l-.27-6.57-.12-3.28-.06-1.57-.06-.36a12.83,12.83,0,0,0-.42-1.87l-.58.77a10.5,10.5,0,0,0-.72.79l-.08.09,0,.05,0,0h0l-.08.09L300,26.1,297.21,29,285.77,40.86c-10.65,11-20.86,21.3-31.44,31.92-3.92,4-7.88,7.36-8.85,7.42-.57,0,.07-1.14,1.52-3l-1,1-1.59,1.49a37.06,37.06,0,0,1-3.8,3.15l-1.27.88c-1.79,1.07-4.41,3.08-6,3.88l.12-.41-.32.24a7.47,7.47,0,0,1-2.13,1.35l-.09-.26a4.55,4.55,0,0,1,.83-1.94c-.1,0-.09-.21,0-.47-.81.45-1.29.56-1-.14-.43.32-.44.19,0-.31.14-.17.31-.36.5-.55h0l-.65.44-.62.56-1.92,1.8c-.8.68-1.34,1.06-1.34,1.06-1.14.51-1.14.51-1.14.25l.12-.2-.94.82c-.21.16-.37.26-.37.26s-.1,0-.24,0a.09.09,0,0,1-.08,0c.29-.45.29-.45.28-.48s.16-.25.16-.25l.64-.71,1.11-.74.14-.26.3-.13-.2,0,.51-.42-.6.47c1.13-1.08,1.13-1.08,1.57-1.52s.85-.87.89-.91a.15.15,0,0,1-.08,0L231.25,83l.32-.22a5.48,5.48,0,0,1,.53-.59l.62-.59.12-.14h0l.48-.55.09-.11h0l2.05-2.36,1-1-.33.26c-.21.16-.11-.08-.22,0-2.67,2.37-5.47,5.06-8.26,7.69a4.37,4.37,0,0,1-1.1.92c-.12,0,.18-.39.67-.89a224.52,224.52,0,0,1,17.83-17.89c1.52-1.45,3-2.91,4.57-4.38l-.24.18,1.21-1.11.13-.12-1,.75-.64.58c-3.53,3.42-6.87,6.37-10.35,9.6-1.87,1.73-3.54,3.16-5.33,4.78-.44.43-.79.69-.79.58a3.67,3.67,0,0,1,.81-1c5.6-5.78,12.17-12.18,17.15-16.31,1-1,2.07-2,3-2.75l0,0-.75.53c.8-.75,1.3-1.08,2.05-1.75l-.41.12c3.92-3.74,8-7.92,11.77-11.26l.43-.39c1.42-1.63,2.87-3.27,4.67-5.1l-1.87,1.78c1.25-1.37,2.51-2.72,3.92-4.12a102.14,102.14,0,0,1,10.7-9.47Q298.26,14.36,312.38.09V2A14.07,14.07,0,0,1,312.3,4c-.06.21-.12-.26-.13-1.11l0-2.22q-10.63,10.89-21.4,21.93l8.13-7.94q5.22-5.16,10.5-10.38l2.19-2.22v.75c0,1.25,0,2.55,0,3.84V25.32c0,4.07,0,8.16.12,12.4.15,7.23.29,13.56.45,20.78.26,10.12.53,19.35.53,29.35a7.89,7.89,0,0,1-.25,2.72c-.15.16-.29-.8-.31-2.14-.47-20.86-1.05-41.35-1-63.16,0-3.42,0-6.78,0-10.12a.42.42,0,0,1-.07.15c-.08.09-.16-.14-.22-.59,0,3.63-.07,7.28-.1,11,.18,7.35.35,14.71.26,22.55-.06,5.38-.24,10.26-.41,15.23.1,6.31.2,12.61.3,19a2.35,2.35,0,0,1,0,.61c0,.1-.06,0-.07-.3-.19-4.38-.33-8.87-.46-13.4-.1.71-.22,1.14-.36,1.08s-.26-.61-.35-1.45V72c0,.63-.06,1.13-.13,1.11a2.49,2.49,0,0,1-.13-1.12l0-12.56c-.06-5-.13-10-.2-15a5.09,5.09,0,0,1-.33,1.45h0c0,.78,0,1.56,0,2.33.4,14.21.62,28.76.54,43.43a1.33,1.33,0,0,1-.06.53,1.08,1.08,0,0,1-.06-.48c0-4.43,0-8.84,0-13.24v0c0,.17-.06.21-.08,0a5.27,5.27,0,0,1,0-.69c0-.2.06-.18.08,0-.05-8.2-.19-16.34-.38-24.37,0,7.46.05,14.93,0,22.39l.12,2.44a2.48,2.48,0,0,1,0,.61c0,.07-.06-.1-.07-.33l0-.68c0,1.41-.15,2.5-.32,2.47a6.85,6.85,0,0,1-.29-2.75c0-3.93,0-7.84-.06-11.75l0-1.27-.08-1.28c-.08,6.08-.16,12.16-.24,18.19a2.34,2.34,0,0,1-.1,1,2,2,0,0,1-.11-.93c-.24-10.64-.41-21.41-.51-32.22-.26-3.56-.52-7.12-.78-10.74V39.9c0,11.76.73,21.73.88,33.12a1.57,1.57,0,0,1-.05.56s-.06-.17-.06-.45c-.1-5.56-.35-10.63-.53-16.14-.14-4.57-.28-8.91-.47-13.16.07,8.68.39,17,.53,25.59a7.48,7.48,0,0,1,0,1,.72.72,0,0,1,0,.21c.08,1.07.14,2.24.19,3.44a3,3,0,0,1,0,.64C306.76,74.83,306.73,74.69,306.71,74.44Zm-61.13-4.52-.18.13.58-.5.93-.58Zm-8.76,10h0l-.53.34Zm58.5-61.5c-3.23,3.22-6.46,6.38-9.76,9.46l2.31-2.36ZM238.63,75.57c.94-.76,1.71-1.31,2.45-1.82.54-.58,1.12-1.17,1.71-1.76l4.73-4.59c-.26.14.11-.22.29-.41s.37-.4.56-.59l-5.06,4.77C241.77,72.62,240.12,74.22,238.63,75.57ZM227.52,87.15l-.16.12.21-.4Zm-.33.63.25-.22A.39.39,0,0,1,227.19,87.78Zm2.25-2-.35.25Zm4.17,1.14.38-1.28L233.52,87Z" transform="translate(0 -0.09)"/><path class="cls-1" d="M287.32,84.17l.47-.38A12.46,12.46,0,0,1,286.67,85a126.25,126.25,0,0,0,13.95-14.4,11.3,11.3,0,0,0,2.47-3c0-.28-1.16.6-2.56,2-.32.28-.69.63-.93.82-2.21,1.74-4.78,4-7.56,6.53l1.69-1.42c-.8.73-1.6,1.45-2.46,2.3l.38-.21a61.53,61.53,0,0,0-7.94,8.25c-1.54,2.13-.5,1.87,2.34-.57Z" transform="translate(0 -0.09)"/><path class="cls-1" d="M293.13,80.11l-4.94,4.31-.35.25.33.13,0,0c1.23-1.62,3.5-4.05,5.61-6.27l.74-.81a3.22,3.22,0,0,0,.57-.81c.07-.29-.71.28-1.74,1.26l-1.18,1.15c-3,2.7-7.43,7.15-8.62,9.12-.26.44.17.25.35.28,0,.26,1.24-.67,2.67-2.08s2.53-2.74,2.47-3l.76-.69-.52.62a30.11,30.11,0,0,1,2.42-2.88l1.4-1.48-1.17.46-.7.79.19-.12c-1.32,1.53-2.57,3-4.06,4.59L285.54,87c-.46.6-.31.65.34.14l.94-.8-.44.35,6.33-5.9a5.74,5.74,0,0,0,.83-.9C293.65,79.71,293.47,79.8,293.13,80.11Z" transform="translate(0 -0.09)"/><path class="cls-1" d="M286.09,87.25a13.75,13.75,0,0,0-1.16,1l-.16.23.69-.58C286,87.54,286.17,87.27,286.09,87.25Z" transform="translate(0 -0.09)"/><path class="cls-1" d="M284.77,88.53l-.3.24.22-.15.05-.05Z" transform="translate(0 -0.09)"/><path class="cls-1" d="M377.67,6l26.43.24a1.51,1.51,0,0,0,.56-.06s-.21,0-.49,0l-26.39-.24a1.94,1.94,0,0,0-.58,0S377.39,6,377.67,6Z" transform="translate(0 -0.09)"/><path class="cls-1" d="M443.52,9.15c-.21,0-.21.06,0,.08a4.45,4.45,0,0,0,.73,0c.17,0,.17-.06,0-.08A4.32,4.32,0,0,0,443.52,9.15Z" transform="translate(0 -0.09)"/><path class="cls-1" d="M441.62,11.61c-1.23.05-2.4.1-3.44.19a3.65,3.65,0,0,1-.58,0c.07.05-.16.1-.61.12-8.76.42-18.18.59-27.46.82a1,1,0,0,1-.39.11,17.81,17.81,0,0,1-3.27.17l-1,0-12.19-.21c-.83.06-1.79.1-2.84.11-3.5.16-7,.31-10.61.42.22,0,.36.08.36.12a5.19,5.19,0,0,1-1.87.19h-1.47l4.21.08.56,0h4.68c13.83-.09,26.82-.51,39.72-1a3.54,3.54,0,0,1,.73,0c.12,0,.1.06-.14.07-8.12.55-15.16,1.27-24.35,1.63L385.28,15l-8.23.25-4.16.12-2.09,0-.52,0a.6.6,0,0,0-.13,0l-.13,0h-.14L359.83,25.79,348.14,37.9c-11.23,11.61-22,22.42-33.15,33.61-4.12,4.25-8.28,7.76-9.27,7.85-.59,0,.09-1.17,1.64-3.06l-1,1-1.67,1.56a38.56,38.56,0,0,1-4,3.34l-1.32,1c-1.87,1.14-4.62,3.28-6.23,4.13l.13-.42-.33.25a8,8,0,0,1-2.22,1.45l-.08-.27a4.83,4.83,0,0,1,.89-2c-.1-.05-.07-.21.06-.48-.84.48-1.34.61-1-.12-.45.34-.46.2,0-.31.15-.18.34-.39.53-.59h0l-.69.47-.65.6c-1.08,1-1.08,1-2,1.9-.85.72-1.41,1.12-1.41,1.12-1.18.55-1.18.55-1.18.28l.13-.2-1,.86a4.11,4.11,0,0,1-.38.28c-.1,0-.1,0-.25.05s-.08,0-.08,0c.31-.47.31-.47.29-.5l.18-.26.68-.75,1.16-.78.14-.28.32-.14-.21,0,.54-.44-.63.49c1.19-1.14,1.19-1.14,1.65-1.6s.89-.91.94-1a.18.18,0,0,1-.09,0L291,82.57l.34-.24a4.44,4.44,0,0,1,.56-.61l.65-.62.12-.15h0l.5-.58.1-.12h0l2.16-2.49c.39-.36.75-.69,1.09-1l-.34.28c-.22.17-.11-.08-.22,0-2.81,2.51-5.76,5.34-8.69,8.12a5,5,0,0,1-1.15,1c-.13,0,.19-.41.7-.94a249.31,249.31,0,0,1,18.8-18.84c1.59-1.54,3.2-3.08,4.81-4.62l-.26.19,1.27-1.17.14-.13-1.05.8-.68.61c-3.71,3.6-7.22,6.72-10.88,10.13-2,1.83-3.72,3.34-5.6,5-.47.45-.84.73-.83.62a4.1,4.1,0,0,1,.86-1c5.9-6.08,12.81-12.83,18-17.2,1.09-1.09,2.18-2.11,3.13-2.9l.05,0-.78.57c.85-.8,1.37-1.14,2.15-1.85l-.42.13c4.13-4,8.45-8.35,12.39-11.87l.44-.42c1.51-1.71,3-3.43,4.94-5.35l-2,1.87c1.32-1.44,2.65-2.86,4.14-4.33a113.64,113.64,0,0,1,11.23-10L366,6,375,5.93a3.89,3.89,0,0,1,1.17.1c.06.06-.31.11-.88.12-2.72.07-4.42.13-9.25.18L353.72,19l5.77-5.6,6.77-6.65,5.47,0,2.63,0c.87,0,1.74,0,2.6,0,8.75,0,17.06,0,26-.11l21.89-.45C435.5,6,445.22,5.7,455.76,5.7a9.09,9.09,0,0,1,2.86.24c.17.16-.85.3-2.25.32-22,.47-43.56,1-66.53,1l-7.35,0s.06,0,.06.06-.23.16-.61.23l8.31.1c7.75-.18,15.5-.35,23.76-.26,5.67.06,10.8.24,16.05.41l20-.3a2.58,2.58,0,0,1,.64,0c.1,0,0,0-.32.07-4.61.19-9.34.33-14.11.46.75.09,1.2.22,1.14.35s-.65.27-1.54.36h3.25a2.62,2.62,0,0,1,1.17.13,2.91,2.91,0,0,1-1.18.13L425.86,9,410,9.15a6,6,0,0,1,1.54.34H414c15-.39,30.3-.61,45.75-.53.3,0,.55,0,.55.06a1,1,0,0,1-.5.05q-7,0-14,0h0c.19,0,.22.06,0,.08a4.45,4.45,0,0,1-.73,0c-.21,0-.19-.06,0-.08q-13,.09-25.68.39c7.87,0,15.73-.05,23.59,0l2.58-.12a2.8,2.8,0,0,1,.64,0c.06,0-.11.06-.35.07l-.72,0a5.91,5.91,0,0,1,2.61.31,7.59,7.59,0,0,1-2.91.3l-12.38.06-1.34,0-1.34.08L449,10.5a2.6,2.6,0,0,1,1,.11,2.22,2.22,0,0,1-1,.11c-11.2.24-22.55.4-33.94.51L403.79,12h1.45c12.39,0,22.9-.73,34.89-.88a1.71,1.71,0,0,1,.59,0s-.17.06-.48.06c-5.85.1-11.19.35-17,.52-4.81.15-9.38.28-13.85.48,9.14-.07,17.9-.39,27-.53a6.62,6.62,0,0,1,1,0,.57.57,0,0,1,.23,0c1.13-.08,2.36-.14,3.62-.19a2.67,2.67,0,0,1,.67,0C442,11.57,441.89,11.6,441.62,11.61ZM306.09,68.81l-.18.13.61-.52,1-.62Zm-9.26,10.52h0l-.55.36Zm61.71-64.7c-3.4,3.4-6.81,6.72-10.27,10l2.43-2.48ZM298.81,74.8c1-.81,1.79-1.4,2.56-1.94.57-.61,1.18-1.23,1.8-1.85l5-4.84c-.27.15.12-.23.31-.43s.39-.42.59-.62l-5.32,5C302.11,71.68,300.37,73.36,298.81,74.8ZM287.09,87l-.17.12.23-.41Zm-.36.66.26-.23A.42.42,0,0,1,286.73,87.64Zm2.37-2.14-.37.27Zm4.25,1.06.43-1.32-.52,1.39Z" transform="translate(0 -0.09)"/><path class="cls-1" d="M36.62,84.42l.45-.36A12.51,12.51,0,0,1,36,85.16,113.79,113.79,0,0,0,49.24,71.48a10.39,10.39,0,0,0,2.33-2.83c0-.27-1.12.55-2.44,1.85-.31.27-.66.6-.89.78-2.11,1.64-4.56,3.77-7.2,6.17l1.61-1.34c-.77.69-1.52,1.37-2.34,2.18l.37-.2a55.49,55.49,0,0,0-7.53,7.85c-1.45,2-.45,1.81,2.26-.5Z" transform="translate(0 -0.09)"/><path class="cls-1" d="M42.18,80.61l-4.7,4.08-.34.23.33.14v0c1.16-1.55,3.31-3.85,5.31-6l.7-.77A3,3,0,0,0,44,77.5c.06-.29-.69.25-1.66,1.19l-1.13,1.08c-2.82,2.56-7.06,6.78-8.16,8.67-.25.43.16.25.34.28,0,.26,1.2-.62,2.55-2s2.4-2.61,2.33-2.85l.72-.66-.48.6a25.89,25.89,0,0,1,2.28-2.75l1.33-1.41L41,80.11l-.67.76.19-.11c-1.25,1.45-2.43,2.82-3.85,4.37l-1.73,2c-.44.58-.29.63.33.14l.9-.75-.42.33,6-5.59a5.19,5.19,0,0,0,.79-.85C42.68,80.23,42.51,80.32,42.18,80.61Z" transform="translate(0 -0.09)"/><path class="cls-1" d="M35.5,87.39a13.92,13.92,0,0,0-1.1,1l-.16.22.67-.54C35.39,87.67,35.58,87.41,35.5,87.39Z" transform="translate(0 -0.09)"/><path class="cls-1" d="M34.24,88.6l-.27.23.2-.14,0,0Z" transform="translate(0 -0.09)"/><path class="cls-1" d="M121.25,6.28q-.12,16.24-.23,32.54a1.53,1.53,0,0,0,0,.53s.06-.21.06-.46c.08-10.91.16-21.77.24-32.64a3.8,3.8,0,0,0-.05-.82A3.41,3.41,0,0,0,121.25,6.28Z" transform="translate(0 -0.09)"/><path class="cls-1" d="M118.13,76.23c0-.2-.06-.19-.08,0a3.09,3.09,0,0,0,0,.68c0,.17.06.16.08,0A4,4,0,0,0,118.13,76.23Z" transform="translate(0 -0.09)"/><path class="cls-1" d="M115.66,74.44c0-1.18-.1-2.29-.18-3.28a5,5,0,0,1,0-.55c0,.07-.1-.15-.12-.57-.42-8.32-.59-17.26-.81-26.07a1.19,1.19,0,0,1-.12-.37,17,17,0,0,1-.17-3.11l0-1q.1-5.8.21-11.58c0-.78-.09-1.7-.11-2.69-.14-1.64-.27-3.29-.42-5a.87.87,0,0,1-.12.35c-.11.14-.19-.08-.19-.48v-.59l-.09,1.85a2.11,2.11,0,0,1,0,.25c0,.6,0,1.22,0,1.84,0,2.54.09,5,.13,7.52.07,3.18.15,6.34.22,9.47.18,6.25.4,12.4.64,18.52a4,4,0,0,1,0,.69c0,.12-.06.1-.08-.12-.55-7.72-1.27-14.39-1.62-23.12l-.27-6.57-.12-3.28-.06-1.57-.06-.36a12.49,12.49,0,0,0-.43-1.87l-.57.77a10.67,10.67,0,0,0-.73.79l-.08.09,0,.05,0,0h0l-.09.09L109,26.1,106.15,29,94.72,40.86c-10.65,11-20.86,21.3-31.45,31.92-3.91,4-7.87,7.36-8.84,7.42-.57,0,.06-1.14,1.52-3l-1,1L53.38,79.7a36.09,36.09,0,0,1-3.79,3.15l-1.27.88c-1.79,1.07-4.42,3.08-6,3.88l.12-.41-.31.24A7.61,7.61,0,0,1,40,88.79l-.09-.26a4.49,4.49,0,0,1,.82-1.94c-.1,0-.08-.21,0-.47-.8.45-1.28.56-1-.14-.43.32-.44.19,0-.31.14-.17.32-.36.51-.55h0l-.65.44-.62.56-1.92,1.8c-.8.68-1.35,1.06-1.35,1.06-1.13.51-1.13.51-1.13.25l.12-.2-.95.82-.36.26c-.1,0-.1,0-.24,0a.09.09,0,0,1-.08,0c.29-.45.29-.45.27-.48l.17-.25.64-.71L35.28,88l.14-.26.3-.13-.2,0,.51-.42-.6.47c1.13-1.08,1.13-1.08,1.57-1.52s.84-.87.89-.91a.15.15,0,0,1-.08,0L40.2,83l.32-.22a5.48,5.48,0,0,1,.53-.59l.62-.59.12-.14h0l.47-.55.1-.11h0l2-2.36c.37-.34.72-.66,1-1l-.32.26c-.22.16-.11-.08-.22,0-2.67,2.37-5.48,5.06-8.26,7.69a4.56,4.56,0,0,1-1.1.92c-.12,0,.17-.39.66-.89A226.34,226.34,0,0,1,54,67.52l4.57-4.38-.25.18,1.22-1.11.13-.12-1,.75-.65.58c-3.52,3.42-6.86,6.37-10.34,9.6-1.87,1.73-3.54,3.16-5.33,4.78-.45.43-.79.69-.79.58a3.67,3.67,0,0,1,.81-1C48,71.64,54.56,65.24,59.54,61.11c1.05-1,2.08-2,3-2.75l0,0-.74.53c.8-.75,1.3-1.08,2.05-1.75l-.41.12c3.92-3.74,8-7.92,11.77-11.26l.42-.39c1.43-1.63,2.88-3.27,4.68-5.1l-1.88,1.78c1.26-1.37,2.52-2.72,3.93-4.12a102.21,102.21,0,0,1,10.69-9.47L121.33.09V2A14.07,14.07,0,0,1,121.25,4c-.06.21-.12-.26-.13-1.11s0-1.48,0-2.22L99.68,22.61l8.14-7.94,10.5-10.38,2.19-2.22v.75c0,1.25,0,2.55,0,3.84V25.32c0,4.07,0,8.16.11,12.4l.46,20.78c.26,10.12.53,19.35.53,29.35a8.17,8.17,0,0,1-.25,2.72c-.15.16-.29-.8-.31-2.14-.48-20.86-1-41.35-1-63.16,0-3.42,0-6.78,0-10.12a.45.45,0,0,1-.06.15c-.08.09-.16-.14-.22-.59q-.06,5.45-.1,11c.17,7.35.35,14.71.26,22.55-.07,5.38-.25,10.26-.41,15.23.1,6.31.19,12.61.29,19a2.47,2.47,0,0,1,0,.61c0,.1-.06,0-.07-.3-.19-4.38-.33-8.87-.46-13.4-.1.71-.22,1.14-.36,1.08s-.26-.61-.35-1.45V72c0,.63-.06,1.13-.13,1.11a2.49,2.49,0,0,1-.13-1.12l0-12.56c-.07-5-.13-10-.2-15a5,5,0,0,1-.34,1.45h0c0,.78,0,1.56,0,2.33.4,14.21.61,28.76.54,43.43a1.33,1.33,0,0,1-.06.53s-.06-.22-.06-.48q0-6.65,0-13.24v0c0,.17,0,.21-.08,0a4,4,0,0,1,0-.69c0-.2.06-.18.08,0,0-8.2-.19-16.34-.38-24.37,0,7.46.05,14.93,0,22.39,0,.81.07,1.62.12,2.44a2.94,2.94,0,0,1-.05.61c0,.07-.06-.1-.06-.33l0-.68c0,1.41-.15,2.5-.32,2.47a7,7,0,0,1-.3-2.75c0-3.93,0-7.84,0-11.75l0-1.27L117,63.24c-.08,6.08-.16,12.16-.24,18.19a2.79,2.79,0,0,1-.1,1,2.1,2.1,0,0,1-.12-.93c-.24-10.64-.4-21.41-.51-32.22-.25-3.56-.51-7.12-.77-10.74,0,.45,0,.92,0,1.38,0,11.76.74,21.73.89,33.12a1.86,1.86,0,0,1-.05.56s-.06-.17-.06-.45c-.1-5.56-.35-10.63-.53-16.14-.15-4.57-.28-8.91-.47-13.16.07,8.68.38,17,.53,25.59a6,6,0,0,1,0,1,.43.43,0,0,1,0,.21c.08,1.07.14,2.24.19,3.44a2.39,2.39,0,0,1,0,.64C115.71,74.83,115.68,74.69,115.66,74.44ZM54.53,69.92l-.18.13.58-.5.92-.58ZM45.76,80h0l-.53.34Zm58.51-61.5c-3.23,3.22-6.46,6.38-9.76,9.46l2.31-2.36ZM47.58,75.57c.94-.76,1.71-1.31,2.45-1.82.54-.58,1.11-1.17,1.71-1.76,1.61-1.56,3.18-3.08,4.72-4.59-.25.14.12-.22.3-.41l.56-.59-5.06,4.77C50.72,72.62,49.07,74.22,47.58,75.57ZM36.46,87.15l-.16.12.22-.4Zm-.32.63.24-.22A.37.37,0,0,1,36.14,87.78Zm2.25-2L38,86Zm4.17,1.14.38-1.28L42.47,87Z" transform="translate(0 -0.09)"/><path class="cls-1" d="M197.75,7.83l-.45.36a11.25,11.25,0,0,1,1.06-1.1,113.79,113.79,0,0,0-13.23,13.68,10.23,10.23,0,0,0-2.33,2.83c0,.27,1.12-.56,2.45-1.85.3-.28.65-.6.89-.78,2.1-1.65,4.55-3.77,7.19-6.18l-1.61,1.35c.77-.69,1.53-1.37,2.34-2.19l-.36.2a54.78,54.78,0,0,0,7.52-7.84c1.46-2,.45-1.81-2.26.5Z" transform="translate(0 -0.09)"/><path class="cls-1" d="M192.19,11.64l4.7-4.08.34-.23-.33-.14v0c-1.16,1.55-3.31,3.86-5.31,6l-.7.77a2.66,2.66,0,0,0-.53.78c-.06.28.68-.25,1.66-1.19l1.12-1.09c2.82-2.55,7.06-6.77,8.16-8.67.25-.42-.16-.24-.34-.28,0-.25-1.19.63-2.55,2s-2.39,2.6-2.33,2.85l-.72.65.48-.59a25.66,25.66,0,0,1-2.28,2.75l-1.33,1.4,1.13-.41.67-.76-.19.11c1.25-1.45,2.43-2.82,3.85-4.36l1.73-2c.44-.57.29-.62-.33-.13l-.9.74.42-.32-6,5.59a5.24,5.24,0,0,0-.79.85C191.7,12,191.87,11.93,192.19,11.64Z" transform="translate(0 -0.09)"/><path class="cls-1" d="M198.87,4.86a11.21,11.21,0,0,0,1.1-1l.16-.21-.67.54C199,4.58,198.8,4.83,198.87,4.86Z" transform="translate(0 -0.09)"/><path class="cls-1" d="M200.13,3.65l.28-.23-.21.13,0,.06Z" transform="translate(0 -0.09)"/><path class="cls-1" d="M113.12,86q.12-16.23.23-32.53a1.26,1.26,0,0,0,0-.53s-.06.2-.06.46c-.08,10.91-.15,21.76-.23,32.64a2.75,2.75,0,0,0,0,.82A3.79,3.79,0,0,0,113.12,86Z" transform="translate(0 -0.09)"/><path class="cls-1" d="M116.25,16c0,.19,0,.19.08,0a3.2,3.2,0,0,0,0-.69c0-.17-.06-.16-.07,0A3.18,3.18,0,0,0,116.25,16Z" transform="translate(0 -0.09)"/><path class="cls-1" d="M118.71,17.81c.05,1.17.1,2.28.18,3.27a3.36,3.36,0,0,1,0,.55c0-.07.1.16.12.58.42,8.31.59,17.26.81,26.07a1,1,0,0,1,.12.37,16.89,16.89,0,0,1,.17,3.1l0,1c-.07,3.87-.14,7.72-.21,11.57.06.79.1,1.7.11,2.7.14,1.64.28,3.28.42,5a1.27,1.27,0,0,1,.12-.35c.11-.13.19.08.19.48v.59l.09-1.84a2,2,0,0,1,0-.25c0-.61,0-1.22,0-1.84,0-2.54-.09-5-.13-7.52-.07-3.19-.15-6.34-.22-9.47-.18-6.26-.4-12.4-.64-18.52a5.37,5.37,0,0,1,0-.7c0-.12.07-.1.08.13.55,7.72,1.27,14.39,1.63,23.11.09,2.2.17,4.39.26,6.57l.12,3.29.06,1.57.06.35a12.18,12.18,0,0,0,.43,1.87c.19-.25.38-.51.58-.76s.5-.53.72-.79l.08-.1,0,0,0,0h0l.08-.08,1.41-1.45,2.81-2.9,11.43-11.86c10.65-11,20.86-21.29,31.45-31.92,3.91-4,7.87-7.35,8.84-7.41.58,0-.06,1.13-1.52,2.95l1-1L181,12.55a33.65,33.65,0,0,1,3.8-3.15l1.26-.89c1.8-1.07,4.42-3.08,6-3.87l-.12.41.32-.24a7,7,0,0,1,2.13-1.35l.08.26a4.37,4.37,0,0,1-.82,1.94c.1,0,.08.21,0,.47.8-.45,1.28-.56,1,.14.43-.33.44-.19,0,.3-.14.17-.32.37-.51.56h0c.25-.17.33-.21.66-.44l.61-.57,1.92-1.8c.81-.68,1.35-1.05,1.35-1.05,1.13-.51,1.13-.51,1.14-.25l-.12.19.94-.81c.21-.17.36-.27.36-.27s.1.05.24,0,.08,0,.08,0c-.28.44-.28.44-.27.48s-.17.24-.17.24l-.64.71-1.11.74-.13.27-.3.13.2-.05-.52.42.6-.46c-1.13,1.07-1.13,1.07-1.57,1.52s-.84.86-.89.91a.18.18,0,0,1,.09,0l-2.4,2.27-.32.22a4.72,4.72,0,0,1-.53.58l-.62.59-.12.14h0l-.47.54-.1.12h0L190,13.86l-1,1,.33-.26c.21-.16.11.08.21,0,2.67-2.38,5.48-5.07,8.26-7.69a4.71,4.71,0,0,1,1.1-.93c.12,0-.17.39-.66.9a228.05,228.05,0,0,1-17.84,17.89l-4.57,4.37.25-.18L174.8,30l-.13.12,1-.75.65-.57c3.52-3.42,6.86-6.37,10.34-9.6,1.87-1.74,3.54-3.17,5.33-4.78.45-.43.8-.69.8-.59a4.14,4.14,0,0,1-.81,1c-5.6,5.77-12.17,12.18-17.15,16.3-1,1-2.08,2-3,2.75l0,0,.74-.53c-.8.75-1.3,1.07-2,1.74l.4-.11c-3.92,3.74-8,7.92-11.77,11.25l-.42.4c-1.43,1.63-2.87,3.27-4.67,5.09L155.91,50c-1.25,1.38-2.52,2.72-3.93,4.12a100.35,100.35,0,0,1-10.69,9.48L113,92.16V90.29a14,14,0,0,1,.09-2.05c.06-.21.12.25.13,1.11s0,1.47,0,2.22l21.4-21.93q-4.06,3.94-8.14,7.93L116.05,88l-2.18,2.21v-.75c0-1.25,0-2.54,0-3.84V66.93c0-4.07,0-8.16-.11-12.4-.16-7.23-.3-13.56-.45-20.78-.27-10.13-.53-19.35-.53-29.36A8.16,8.16,0,0,1,113,1.68c.15-.16.29.8.31,2.13.48,20.87,1.05,41.35,1,63.16,0,3.42,0,6.78,0,10.13a.68.68,0,0,1,.06-.16c.08-.09.16.15.23.59,0-3.62.06-7.28.09-11-.17-7.35-.35-14.72-.26-22.55.07-5.39.25-10.26.42-15.24-.1-6.31-.2-12.6-.3-19a2.51,2.51,0,0,1,0-.61c0-.09.06,0,.07.3.19,4.39.34,8.87.46,13.41.1-.72.22-1.14.36-1.09s.27.61.36,1.46V20.21a2.68,2.68,0,0,1,.12-1.12,2.39,2.39,0,0,1,.13,1.13l0,12.55c.07,5,.14,10,.2,15.06a5.47,5.47,0,0,1,.34-1.46h0c0-.78,0-1.55,0-2.33-.39-14.21-.61-28.76-.53-43.42a1.4,1.4,0,0,1,0-.53s.06.22.06.47q0,6.65,0,13.25v0c0-.18,0-.21.08,0a4,4,0,0,1,0,.69c0,.21-.06.19-.08,0q.08,12.3.39,24.38c0-7.47-.06-14.93,0-22.39,0-.81-.08-1.62-.12-2.45a2.52,2.52,0,0,1,0-.61c0-.06.06.1.07.33l0,.69c0-1.41.14-2.5.31-2.48a7,7,0,0,1,.3,2.76c0,3.93,0,7.84.06,11.75l0,1.27.08,1.28q.1-9.14.23-18.2a2.34,2.34,0,0,1,.11-1,2,2,0,0,1,.11.93c.24,10.64.4,21.4.51,32.22.25,3.55.51,7.12.77,10.74,0-.46,0-.92,0-1.38,0-11.76-.73-21.74-.88-33.12a1.64,1.64,0,0,1,0-.56s.06.16.06.45c.1,5.56.36,10.63.53,16.14.15,4.57.28,8.91.48,13.15-.07-8.67-.39-17-.53-25.59a6,6,0,0,1,0-1,.52.52,0,0,1,0-.21c-.09-1.08-.14-2.25-.19-3.45a2.51,2.51,0,0,1,0-.64C118.66,17.42,118.69,17.56,118.71,17.81Zm61.13,4.52.18-.13-.58.49-.92.58Zm8.77-10h0l.53-.34ZM130.1,73.79c3.23-3.22,6.47-6.37,9.76-9.45l-2.3,2.36Zm56.69-57.12c-.94.76-1.71,1.32-2.45,1.83-.53.58-1.11,1.17-1.71,1.75l-4.72,4.59c.26-.13-.12.23-.3.42l-.55.59,5.05-4.77C183.65,19.63,185.3,18,186.79,16.67ZM197.91,5.1l.16-.12-.21.39Zm.32-.64-.24.22A.43.43,0,0,1,198.23,4.46Zm-2.25,2a3.14,3.14,0,0,0,.36-.25Zm-4.17-1.14-.38,1.29.47-1.35Z" transform="translate(0 -0.09)"/><path class="cls-1" d="M331.43,84.42l.45-.36a12.88,12.88,0,0,1-1.07,1.1A113,113,0,0,0,344,71.48a10.52,10.52,0,0,0,2.34-2.83c0-.27-1.12.55-2.45,1.85-.31.27-.66.6-.89.78-2.11,1.64-4.56,3.77-7.2,6.17l1.61-1.34c-.76.69-1.52,1.37-2.34,2.18l.37-.2A55.49,55.49,0,0,0,328,85.94c-1.45,2-.44,1.81,2.27-.5Z" transform="translate(0 -0.09)"/><path class="cls-1" d="M337,80.61l-4.7,4.08-.34.23.33.14v0c1.16-1.55,3.32-3.85,5.31-6l.7-.77a2.78,2.78,0,0,0,.54-.78c.06-.29-.69.25-1.66,1.19L336,79.77c-2.82,2.56-7.05,6.78-8.16,8.67-.25.43.16.25.34.28,0,.26,1.2-.62,2.55-2s2.4-2.61,2.33-2.85l.73-.66-.49.6a25.89,25.89,0,0,1,2.28-2.75L337,79.7l-1.13.41-.66.76a1.79,1.79,0,0,1,.19-.11c-1.26,1.45-2.43,2.82-3.85,4.37l-1.74,2c-.43.58-.28.63.33.14l.91-.75-.42.33,6-5.59a5.19,5.19,0,0,0,.79-.85C337.48,80.23,337.31,80.32,337,80.61Z" transform="translate(0 -0.09)"/><path class="cls-1" d="M330.3,87.39a13.92,13.92,0,0,0-1.1,1l-.16.22.67-.54C330.19,87.67,330.38,87.41,330.3,87.39Z" transform="translate(0 -0.09)"/><path class="cls-1" d="M329,88.6l-.27.23.2-.14,0,0Z" transform="translate(0 -0.09)"/><path class="cls-1" d="M416.05,6.28q-.1,16.24-.23,32.54a1.53,1.53,0,0,0,.05.53s.06-.21.06-.46c.08-10.91.16-21.77.24-32.64a3.16,3.16,0,0,0-.05-.82A3.41,3.41,0,0,0,416.05,6.28Z" transform="translate(0 -0.09)"/><path class="cls-1" d="M412.93,76.23c0-.2-.06-.19-.08,0a3.86,3.86,0,0,0,0,.68c0,.17.06.16.08,0A4,4,0,0,0,412.93,76.23Z" transform="translate(0 -0.09)"/><path class="cls-1" d="M410.46,74.44c0-1.18-.1-2.29-.18-3.28a5,5,0,0,1,0-.55c0,.07-.09-.15-.12-.57-.42-8.32-.58-17.26-.81-26.07a1.19,1.19,0,0,1-.12-.37,18,18,0,0,1-.17-3.11l0-1L409.3,28c-.05-.78-.09-1.7-.1-2.69-.14-1.64-.28-3.29-.43-5a.87.87,0,0,1-.12.35c-.11.14-.19-.08-.18-.48v-.59l-.09,1.85a2.09,2.09,0,0,1,0,.25v1.84c.05,2.54.09,5,.13,7.52q.12,4.77.22,9.47c.18,6.25.4,12.4.64,18.52a3.16,3.16,0,0,1,0,.69c0,.12-.06.1-.08-.12-.54-7.72-1.26-14.39-1.62-23.12l-.27-6.57-.12-3.28-.06-1.57-.06-.36a11.32,11.32,0,0,0-.43-1.87l-.57.77a10.5,10.5,0,0,0-.72.79l-.09.09,0,.05,0,0h0l-.08.09-1.41,1.44L401,29,389.52,40.86c-10.65,11-20.86,21.3-31.44,31.92-3.92,4-7.88,7.36-8.85,7.42-.57,0,.06-1.14,1.52-3l-1,1-1.59,1.49a37.06,37.06,0,0,1-3.8,3.15l-1.27.88c-1.79,1.07-4.41,3.08-6,3.88l.12-.41-.32.24a7.47,7.47,0,0,1-2.13,1.35l-.09-.26a4.55,4.55,0,0,1,.83-1.94c-.1,0-.09-.21,0-.47-.81.45-1.29.56-1-.14-.43.32-.44.19,0-.31.14-.17.32-.36.51-.55h0l-.65.44-.62.56-1.92,1.8c-.8.68-1.35,1.06-1.35,1.06-1.13.51-1.13.51-1.13.25l.12-.2-.94.82c-.21.16-.37.26-.37.26s-.1,0-.24,0a.09.09,0,0,1-.08,0c.29-.45.29-.45.28-.48s.16-.25.16-.25l.64-.71,1.11-.74.14-.26.3-.13-.2,0,.51-.42-.6.47c1.13-1.08,1.13-1.08,1.57-1.52s.85-.87.89-.91a.15.15,0,0,1-.08,0L335,83l.32-.22a5.48,5.48,0,0,1,.53-.59l.62-.59.12-.14h0l.48-.55.09-.11h0l2-2.36,1-1-.33.26c-.22.16-.11-.08-.22,0-2.67,2.37-5.47,5.06-8.26,7.69a4.37,4.37,0,0,1-1.1.92c-.12,0,.17-.39.67-.89a224.52,224.52,0,0,1,17.83-17.89c1.52-1.45,3.05-2.91,4.57-4.38l-.25.18,1.22-1.11.13-.12-1,.75-.64.58c-3.53,3.42-6.87,6.37-10.35,9.6-1.87,1.73-3.54,3.16-5.33,4.78-.44.43-.79.69-.79.58a3.67,3.67,0,0,1,.81-1c5.6-5.78,12.17-12.18,17.15-16.31,1-1,2.07-2,3-2.75l.05,0-.75.53c.8-.75,1.3-1.08,2.05-1.75l-.41.12c3.92-3.74,8-7.92,11.77-11.26l.43-.39c1.42-1.63,2.87-3.27,4.67-5.1l-1.87,1.78c1.25-1.37,2.51-2.72,3.92-4.12a102.14,102.14,0,0,1,10.7-9.47Q402,14.36,416.13.09V2A14.07,14.07,0,0,1,416.05,4c-.06.21-.12-.26-.13-1.11l0-2.22q-10.63,10.89-21.4,21.93l8.13-7.94q5.22-5.16,10.5-10.38l2.19-2.22v.75c0,1.25,0,2.55,0,3.84V25.32c0,4.07,0,8.16.11,12.4l.46,20.78c.26,10.12.53,19.35.53,29.35a7.89,7.89,0,0,1-.25,2.72c-.15.16-.29-.8-.31-2.14-.47-20.86-1.05-41.35-1-63.16,0-3.42,0-6.78,0-10.12a.72.72,0,0,1-.07.15c-.08.09-.16-.14-.22-.59,0,3.63-.07,7.28-.1,11,.17,7.35.35,14.71.26,22.55-.06,5.38-.25,10.26-.41,15.23.1,6.31.2,12.61.3,19a2.35,2.35,0,0,1,0,.61c0,.1-.06,0-.07-.3-.19-4.38-.33-8.87-.46-13.4-.1.71-.22,1.14-.36,1.08s-.26-.61-.35-1.45V72c0,.63-.06,1.13-.13,1.11a2.49,2.49,0,0,1-.13-1.12l0-12.56c-.06-5-.13-10-.2-15a5.46,5.46,0,0,1-.33,1.45h0c0,.78,0,1.56,0,2.33.4,14.21.61,28.76.54,43.43a1.33,1.33,0,0,1-.06.53,1.08,1.08,0,0,1-.06-.48c0-4.43,0-8.84,0-13.24v0c0,.17-.05.21-.07,0a4,4,0,0,1,0-.69c0-.2.06-.18.08,0-.05-8.2-.19-16.34-.38-24.37,0,7.46.05,14.93,0,22.39l.12,2.44a3.1,3.1,0,0,1,0,.61c0,.07-.06-.1-.07-.33l0-.68c0,1.41-.15,2.5-.32,2.47a6.85,6.85,0,0,1-.29-2.75c0-3.93,0-7.84-.06-11.75l0-1.27-.08-1.28c-.08,6.08-.16,12.16-.24,18.19a2.55,2.55,0,0,1-.1,1,2,2,0,0,1-.11-.93c-.24-10.64-.41-21.41-.51-32.22-.26-3.56-.52-7.12-.78-10.74,0,.45,0,.92,0,1.38,0,11.76.74,21.73.89,33.12a1.57,1.57,0,0,1-.05.56s-.06-.17-.06-.45c-.1-5.56-.35-10.63-.53-16.14-.14-4.57-.28-8.91-.47-13.16.07,8.68.39,17,.53,25.59a7.48,7.48,0,0,1,0,1,.72.72,0,0,1,0,.21c.08,1.07.14,2.24.19,3.44a3,3,0,0,1,0,.64C410.51,74.83,410.48,74.69,410.46,74.44Zm-61.13-4.52-.18.13.58-.5.92-.58S350,69.45,349.33,69.92Zm-8.76,10h0l-.53.34Zm58.5-61.5c-3.23,3.22-6.46,6.38-9.76,9.46l2.31-2.36ZM342.38,75.57c.94-.76,1.71-1.31,2.45-1.82.54-.58,1.11-1.17,1.71-1.76l4.73-4.59c-.26.14.11-.22.29-.41s.37-.4.56-.59l-5.06,4.77C345.52,72.62,343.87,74.22,342.38,75.57ZM331.27,87.15l-.17.12.22-.4Zm-.33.63.25-.22A.39.39,0,0,1,330.94,87.78Zm2.25-2-.35.25Zm4.17,1.14.38-1.28L337.27,87Z" transform="translate(0 -0.09)"/><path class="cls-1" d="M492.55,7.83l-.45.36a10.43,10.43,0,0,1,1.07-1.1,113.91,113.91,0,0,0-13.24,13.68,10.23,10.23,0,0,0-2.33,2.83c0,.27,1.12-.56,2.45-1.85.3-.28.65-.6.89-.78,2.1-1.65,4.55-3.77,7.2-6.18l-1.62,1.35c.77-.69,1.53-1.37,2.34-2.19l-.36.2A54.78,54.78,0,0,0,496,6.31c1.46-2,.45-1.81-2.26.5Z" transform="translate(0 -0.09)"/><path class="cls-1" d="M487,11.64l4.71-4.08.33-.23-.32-.14,0,0c-1.16,1.55-3.31,3.86-5.31,6l-.7.77a2.66,2.66,0,0,0-.53.78c-.06.28.68-.25,1.66-1.19l1.12-1.09C490.75,9.92,495,5.7,496.1,3.8c.24-.42-.17-.24-.35-.28-.05-.25-1.19.63-2.55,2s-2.39,2.6-2.33,2.85l-.72.65.48-.59a25.66,25.66,0,0,1-2.28,2.75L487,12.54l1.13-.41.66-.76-.19.11c1.26-1.45,2.43-2.82,3.85-4.36l1.73-2c.44-.57.29-.62-.33-.13l-.9.74.42-.32-6,5.59a5.1,5.1,0,0,0-.78.85C486.5,12,486.67,11.93,487,11.64Z" transform="translate(0 -0.09)"/><path class="cls-1" d="M493.68,4.86a12.54,12.54,0,0,0,1.09-1l.16-.21-.66.54C493.79,4.58,493.6,4.83,493.68,4.86Z" transform="translate(0 -0.09)"/><path class="cls-1" d="M494.93,3.65l.28-.23-.2.13-.05.06Z" transform="translate(0 -0.09)"/><path class="cls-1" d="M407.92,86q.12-16.23.23-32.53a1.26,1.26,0,0,0,0-.53s-.05.2-.05.46c-.08,10.91-.16,21.76-.24,32.64a3.22,3.22,0,0,0,.05.82A3.79,3.79,0,0,0,407.92,86Z" transform="translate(0 -0.09)"/><path class="cls-1" d="M411.05,16c0,.19.06.19.08,0a4,4,0,0,0,0-.69c0-.17-.06-.16-.08,0A3.18,3.18,0,0,0,411.05,16Z" transform="translate(0 -0.09)"/><path class="cls-1" d="M413.51,17.81c.05,1.17.1,2.28.19,3.27a3.28,3.28,0,0,1,0,.55c.05-.07.1.16.12.58.42,8.31.59,17.26.82,26.07a.89.89,0,0,1,.11.37,16,16,0,0,1,.17,3.1l0,1c-.07,3.87-.14,7.72-.21,11.57.06.79.1,1.7.11,2.7.14,1.64.28,3.28.42,5a1.72,1.72,0,0,1,.12-.35c.11-.13.19.08.19.48v.59l.08-1.84a2,2,0,0,1,0-.25c0-.61,0-1.22,0-1.84,0-2.54-.08-5-.13-7.52-.07-3.19-.14-6.34-.22-9.47-.17-6.26-.4-12.4-.64-18.52a4,4,0,0,1,0-.7c0-.12.06-.1.07.13.55,7.72,1.27,14.39,1.63,23.11.09,2.2.17,4.39.26,6.57l.13,3.29.06,1.57.06.35a11.33,11.33,0,0,0,.42,1.87c.19-.25.38-.51.58-.76s.5-.53.72-.79l.08-.1,0,0,0,0h0l.08-.08,1.41-1.45,2.81-2.9c3.74-3.87,7.49-7.77,11.43-11.86,10.65-11,20.86-21.29,31.45-31.92,3.91-4,7.87-7.35,8.84-7.41.58,0-.06,1.13-1.52,2.95l1-1,1.59-1.48a33.65,33.65,0,0,1,3.8-3.15l1.27-.89c1.79-1.07,4.41-3.08,6-3.87l-.12.41.32-.24a7,7,0,0,1,2.13-1.35l.08.26a4.37,4.37,0,0,1-.82,1.94c.1,0,.08.21,0,.47.8-.45,1.29-.56,1,.14.42-.33.44-.19,0,.3-.14.17-.32.37-.5.56h0c.25-.17.33-.21.66-.44l.62-.57,1.91-1.8c.81-.68,1.35-1.05,1.35-1.05,1.13-.51,1.13-.51,1.14-.25l-.12.19.94-.81c.21-.17.36-.27.36-.27s.1.05.24,0,.09,0,.09,0c-.29.44-.29.44-.28.48s-.17.24-.17.24l-.63.71-1.11.74-.14.27-.3.13.2-.05-.52.42.61-.46c-1.14,1.07-1.14,1.07-1.58,1.52s-.84.86-.88.91a.15.15,0,0,1,.08,0L489,9.3l-.32.22a4,4,0,0,1-.53.58l-.62.59-.11.14h0l-.47.54-.1.12h0l-2.05,2.36-1,1,.33-.26c.21-.16.11.08.22,0,2.66-2.38,5.47-5.07,8.26-7.69a4.32,4.32,0,0,1,1.1-.93c.12,0-.18.39-.67.9a228.05,228.05,0,0,1-17.84,17.89l-4.57,4.37.25-.18L469.6,30l-.13.12,1-.75.65-.57c3.52-3.42,6.87-6.37,10.34-9.6,1.87-1.74,3.54-3.17,5.33-4.78.45-.43.8-.69.8-.59a3.88,3.88,0,0,1-.81,1c-5.6,5.77-12.17,12.18-17.15,16.3-1,1-2.08,2-3,2.75l0,0,.74-.53c-.8.75-1.3,1.07-2,1.74l.4-.11c-3.92,3.74-8,7.92-11.77,11.25l-.42.4c-1.43,1.63-2.87,3.27-4.67,5.09L450.71,50c-1.25,1.38-2.52,2.72-3.93,4.12a100.35,100.35,0,0,1-10.69,9.48Q422,77.87,407.85,92.16l0-1.87a13.6,13.6,0,0,1,.1-2.05c.05-.21.11.25.12,1.11s0,1.47,0,2.22l21.4-21.93-8.14,7.93L410.85,88l-2.18,2.21v-.75c0-1.25,0-2.54,0-3.84,0-6.31,0-12.47,0-18.65,0-4.07,0-8.16-.12-12.4-.16-7.23-.3-13.56-.45-20.78-.27-10.13-.53-19.35-.53-29.36a8.16,8.16,0,0,1,.24-2.71c.16-.16.3.8.31,2.13.48,20.87,1.05,41.35,1,63.16,0,3.42,0,6.78,0,10.13a.68.68,0,0,1,.06-.16c.09-.09.16.15.23.59,0-3.62.06-7.28.1-11-.18-7.35-.35-14.72-.26-22.55.06-5.39.24-10.26.41-15.24-.1-6.31-.2-12.6-.3-19a3.17,3.17,0,0,1,0-.61c0-.09.06,0,.07.3.19,4.39.34,8.87.47,13.41.09-.72.22-1.14.35-1.09s.27.61.36,1.46V20.21c0-.64.06-1.14.13-1.12a2.63,2.63,0,0,1,.12,1.13l0,12.55c.07,5,.14,10,.2,15.06a5.47,5.47,0,0,1,.34-1.46h0c0-.78,0-1.55,0-2.33-.39-14.21-.61-28.76-.53-43.42,0-.29,0-.53.06-.53s.06.22,0,.47q0,6.65,0,13.25v0c0-.18.06-.21.08,0a4,4,0,0,1,0,.69c0,.21-.06.19-.08,0q.09,12.3.39,24.38c0-7.47-.05-14.93,0-22.39,0-.81-.08-1.62-.12-2.45a2.52,2.52,0,0,1,0-.61c0-.06.06.1.07.33l0,.69c0-1.41.15-2.5.31-2.48a6.83,6.83,0,0,1,.3,2.76c0,3.93,0,7.84.06,11.75l0,1.27.08,1.28q.12-9.14.23-18.2a2.34,2.34,0,0,1,.11-1,2,2,0,0,1,.11.93c.24,10.64.4,21.4.51,32.22.26,3.55.51,7.12.77,10.74,0-.46,0-.92,0-1.38,0-11.76-.73-21.74-.88-33.12a1.53,1.53,0,0,1,.05-.56s.06.16.06.45c.1,5.56.35,10.63.52,16.14.15,4.57.28,8.91.48,13.15-.07-8.67-.39-17-.53-25.59a6,6,0,0,1,0-1,.52.52,0,0,1,0-.21c-.08-1.08-.14-2.25-.19-3.45a2.51,2.51,0,0,1,0-.64C413.47,17.42,413.5,17.56,413.51,17.81Zm61.13,4.52.18-.13-.58.49-.92.58Zm8.77-10h0l.53-.34ZM424.9,73.79c3.23-3.22,6.47-6.37,9.76-9.45l-2.3,2.36Zm56.69-57.12c-.93.76-1.71,1.32-2.44,1.83-.54.58-1.12,1.17-1.71,1.75l-4.73,4.59c.26-.13-.11.23-.29.42s-.38.39-.56.59l5.05-4.77C478.45,19.63,480.1,18,481.59,16.67ZM492.71,5.1l.16-.12-.21.39Zm.33-.64-.25.22A.42.42,0,0,1,493,4.46Zm-2.25,2a4.07,4.07,0,0,0,.35-.25Zm-4.18-1.14-.38,1.29.48-1.35Z" transform="translate(0 -0.09)"/><path class="cls-1" d="M145.61,84.42l.45-.36a12.88,12.88,0,0,1-1.07,1.1,113,113,0,0,0,13.23-13.68,10.52,10.52,0,0,0,2.34-2.83c0-.27-1.12.55-2.45,1.85-.31.27-.66.6-.89.78-2.11,1.64-4.55,3.77-7.2,6.17l1.61-1.34c-.76.69-1.52,1.37-2.33,2.18l.36-.2a55.49,55.49,0,0,0-7.53,7.85c-1.45,2-.44,1.81,2.27-.5Z" transform="translate(0 -0.09)"/><path class="cls-1" d="M151.17,80.61l-4.71,4.08-.34.23.33.14,0,0c1.16-1.55,3.31-3.85,5.31-6l.7-.77a2.66,2.66,0,0,0,.53-.78c.06-.29-.69.25-1.66,1.19l-1.13,1.08c-2.82,2.56-7.05,6.78-8.16,8.67-.25.43.17.25.34.28,0,.26,1.2-.62,2.55-2s2.4-2.61,2.34-2.85l.72-.66-.49.6a25.89,25.89,0,0,1,2.28-2.75l1.33-1.41-1.13.41-.66.76a1.79,1.79,0,0,1,.19-.11c-1.26,1.45-2.43,2.82-3.85,4.37l-1.74,2c-.43.58-.28.63.33.14l.91-.75-.42.33,6-5.59a5.53,5.53,0,0,0,.78-.85C151.66,80.23,151.49,80.32,151.17,80.61Z" transform="translate(0 -0.09)"/><path class="cls-1" d="M144.48,87.39a14,14,0,0,0-1.09,1l-.16.22.66-.54C144.37,87.67,144.56,87.41,144.48,87.39Z" transform="translate(0 -0.09)"/><path class="cls-1" d="M143.23,88.6l-.28.23.2-.14,0,0Z" transform="translate(0 -0.09)"/><path class="cls-1" d="M230.24,6.28q-.12,16.24-.24,32.54a1.22,1.22,0,0,0,.06.53,1.24,1.24,0,0,0,.05-.46c.08-10.91.16-21.77.24-32.64a3.16,3.16,0,0,0,0-.82A3.67,3.67,0,0,0,230.24,6.28Z" transform="translate(0 -0.09)"/><path class="cls-1" d="M227.11,76.23c0-.2-.06-.19-.08,0a3.86,3.86,0,0,0,0,.68c0,.17.06.16.08,0A4,4,0,0,0,227.11,76.23Z" transform="translate(0 -0.09)"/><path class="cls-1" d="M224.64,74.44c0-1.18-.09-2.29-.18-3.28a5,5,0,0,1,0-.55c-.05.07-.09-.15-.11-.57-.43-8.32-.59-17.26-.82-26.07a1.19,1.19,0,0,1-.12-.37,18,18,0,0,1-.17-3.11l0-1q.1-5.8.21-11.58c-.06-.78-.1-1.7-.11-2.69-.14-1.64-.28-3.29-.42-5a1,1,0,0,1-.13.35c-.11.14-.19-.08-.18-.48v-.59l-.08,1.85c0,.08,0,.17,0,.25v1.84c.05,2.54.09,5,.13,7.52.08,3.18.15,6.34.23,9.47.17,6.25.39,12.4.63,18.52a3.16,3.16,0,0,1,0,.69c0,.12-.06.1-.08-.12-.54-7.72-1.26-14.39-1.62-23.12q-.13-3.29-.26-6.57l-.13-3.28-.06-1.57-.06-.36a12.83,12.83,0,0,0-.42-1.87l-.58.77a10.5,10.5,0,0,0-.72.79l-.08.09,0,.05,0,0h0l-.08.09L218,26.1,215.14,29,203.71,40.86c-10.66,11-20.87,21.3-31.45,31.92-3.91,4-7.88,7.36-8.85,7.42-.57,0,.07-1.14,1.52-3l-1,1-1.59,1.49a36,36,0,0,1-3.8,3.15l-1.27.88c-1.79,1.07-4.41,3.08-6,3.88l.12-.41-.32.24A7.47,7.47,0,0,1,149,88.79l-.09-.26a4.55,4.55,0,0,1,.83-1.94c-.1,0-.09-.21,0-.47-.81.45-1.29.56-1-.14-.43.32-.44.19,0-.31.14-.17.31-.36.5-.55h0c-.26.16-.33.21-.66.44l-.62.56-1.92,1.8c-.8.68-1.34,1.06-1.34,1.06-1.13.51-1.13.51-1.14.25l.12-.2-.94.82c-.21.16-.37.26-.37.26s-.1,0-.24,0a.09.09,0,0,1-.08,0c.29-.45.29-.45.28-.48s.16-.25.16-.25l.64-.71,1.11-.74.14-.26.3-.13-.2,0,.51-.42-.6.47c1.13-1.08,1.13-1.08,1.57-1.52s.85-.87.89-.91a.15.15,0,0,1-.08,0L149.18,83l.33-.22a3.91,3.91,0,0,1,.53-.59l.61-.59.12-.14h0l.48-.55.09-.11h0l2-2.36,1-1-.33.26c-.21.16-.11-.08-.22,0-2.67,2.37-5.47,5.06-8.26,7.69a4.37,4.37,0,0,1-1.1.92c-.12,0,.18-.39.67-.89A223,223,0,0,1,163,67.52l4.56-4.38-.24.18,1.21-1.11.13-.12-1,.75-.64.58c-3.53,3.42-6.87,6.37-10.35,9.6-1.87,1.73-3.53,3.16-5.33,4.78-.44.43-.79.69-.79.58a3.91,3.91,0,0,1,.81-1c5.6-5.78,12.17-12.18,17.15-16.31,1-1,2.07-2,3-2.75l.05,0-.75.53c.81-.75,1.31-1.08,2.05-1.75l-.4.12c3.91-3.74,8-7.92,11.77-11.26l.42-.39c1.42-1.63,2.87-3.27,4.67-5.1l-1.87,1.78c1.25-1.37,2.51-2.72,3.93-4.12a101.2,101.2,0,0,1,10.69-9.47Q216.19,14.36,230.31.09l0,1.86a15.2,15.2,0,0,1-.1,2.06c-.06.21-.12-.26-.12-1.11s0-1.48,0-2.22q-10.63,10.89-21.4,21.93l8.14-7.94L227.3,4.29l2.19-2.22v.75c0,1.25,0,2.55,0,3.84V25.32c0,4.07,0,8.16.12,12.4.15,7.23.29,13.56.45,20.78.26,10.12.53,19.35.53,29.35a7.89,7.89,0,0,1-.25,2.72c-.15.16-.29-.8-.31-2.14-.47-20.86-1.05-41.35-1-63.16,0-3.42,0-6.78,0-10.12a.3.3,0,0,1-.07.15c-.08.09-.16-.14-.22-.59,0,3.63-.07,7.28-.1,11,.18,7.35.35,14.71.26,22.55-.06,5.38-.24,10.26-.41,15.23.1,6.31.2,12.61.3,19a2.35,2.35,0,0,1,0,.61c0,.1-.06,0-.07-.3-.19-4.38-.33-8.87-.46-13.4-.09.71-.22,1.14-.35,1.08s-.27-.61-.36-1.45V72c0,.63-.06,1.13-.13,1.11a2.49,2.49,0,0,1-.13-1.12l0-12.56c-.06-5-.13-10-.2-15a5.09,5.09,0,0,1-.33,1.45h0c0,.78,0,1.56,0,2.33.39,14.21.61,28.76.53,43.43a1.33,1.33,0,0,1-.06.53,1.08,1.08,0,0,1-.06-.48c0-4.43,0-8.84,0-13.24v0c0,.17-.06.21-.08,0a4,4,0,0,1,0-.69c0-.2,0-.18.07,0-.05-8.2-.18-16.34-.38-24.37,0,7.46,0,14.93,0,22.39l.12,2.44a2.48,2.48,0,0,1,0,.61c0,.07-.06-.1-.07-.33l0-.68c0,1.41-.15,2.5-.32,2.47a6.85,6.85,0,0,1-.29-2.75c0-3.93,0-7.84-.06-11.75l0-1.27L226,63.24c-.08,6.08-.16,12.16-.24,18.19a2.34,2.34,0,0,1-.1,1,2,2,0,0,1-.11-.93c-.24-10.64-.4-21.41-.51-32.22-.26-3.56-.52-7.12-.78-10.74V39.9c0,11.76.73,21.73.88,33.12a1.57,1.57,0,0,1,0,.56s-.06-.17-.06-.45c-.1-5.56-.35-10.63-.53-16.14-.14-4.57-.28-8.91-.47-13.16.07,8.68.39,17,.53,25.59a7.48,7.48,0,0,1,0,1,.72.72,0,0,1,0,.21c.08,1.07.14,2.24.19,3.44a3,3,0,0,1,0,.64C224.69,74.83,224.66,74.69,224.64,74.44Zm-61.13-4.52-.17.13c.17-.16.37-.32.58-.5l.92-.58Zm-8.76,10h0l-.52.34Zm58.5-61.5c-3.23,3.22-6.46,6.38-9.76,9.46l2.31-2.36ZM156.56,75.57c.94-.76,1.71-1.31,2.45-1.82.54-.58,1.12-1.17,1.71-1.76l4.73-4.59c-.26.14.11-.22.29-.41s.37-.4.56-.59l-5.05,4.77C159.7,72.62,158.05,74.22,156.56,75.57ZM145.45,87.15l-.16.12.21-.4Zm-.33.63.25-.22A.39.39,0,0,1,145.12,87.78Zm2.25-2L147,86Zm4.18,1.14.38-1.28L151.45,87Z" transform="translate(0 -0.09)"/><path class="cls-1" d="M178.09,84.42l.45-.36a12.51,12.51,0,0,1-1.06,1.1,113.79,113.79,0,0,0,13.23-13.68A10.39,10.39,0,0,0,193,68.65c0-.27-1.12.55-2.45,1.85-.3.27-.65.6-.89.78-2.1,1.64-4.55,3.77-7.19,6.17l1.61-1.34c-.77.69-1.53,1.37-2.34,2.18l.36-.2a54.8,54.8,0,0,0-7.52,7.85c-1.46,2-.45,1.81,2.26-.5Z" transform="translate(0 -0.09)"/><path class="cls-1" d="M183.65,80.61,179,84.69l-.34.23.33.14v0c1.16-1.55,3.31-3.85,5.31-6l.7-.77a2.66,2.66,0,0,0,.53-.78c.06-.29-.68.25-1.66,1.19l-1.12,1.08c-2.82,2.56-7.06,6.78-8.16,8.67-.25.43.16.25.34.28.05.26,1.19-.62,2.55-2a10.08,10.08,0,0,0,2.33-2.85l.72-.66-.48.6a24.7,24.7,0,0,1,2.28-2.75l1.33-1.41-1.13.41-.67.76.19-.11c-1.25,1.45-2.43,2.82-3.85,4.37l-1.73,2c-.44.58-.29.63.33.14l.9-.75-.42.33,6-5.59a5.69,5.69,0,0,0,.79-.85C184.14,80.23,184,80.32,183.65,80.61Z" transform="translate(0 -0.09)"/><path class="cls-1" d="M177,87.39a12.35,12.35,0,0,0-1.1,1l-.16.22.67-.54C176.85,87.67,177,87.41,177,87.39Z" transform="translate(0 -0.09)"/><path class="cls-1" d="M175.71,88.6l-.28.23.21-.14,0,0Z" transform="translate(0 -0.09)"/><path class="cls-1" d="M262.72,6.28q-.12,16.24-.23,32.54a1.3,1.3,0,0,0,.05.53s.06-.21.06-.46c.08-10.91.15-21.77.23-32.64a2.71,2.71,0,0,0-.05-.82A3.67,3.67,0,0,0,262.72,6.28Z" transform="translate(0 -0.09)"/><path class="cls-1" d="M259.59,76.23c0-.2,0-.19-.08,0a3.11,3.11,0,0,0,0,.68c0,.17.06.16.07,0A3.18,3.18,0,0,0,259.59,76.23Z" transform="translate(0 -0.09)"/><path class="cls-1" d="M257.13,74.44c-.05-1.18-.1-2.29-.18-3.28a3.36,3.36,0,0,1,0-.55c-.05.07-.1-.15-.12-.57-.42-8.32-.59-17.26-.81-26.07a1.19,1.19,0,0,1-.12-.37,17,17,0,0,1-.17-3.11l0-1L256,28c-.06-.78-.1-1.7-.11-2.69-.14-1.64-.28-3.29-.42-5a1.06,1.06,0,0,1-.12.35c-.11.14-.19-.08-.19-.48v-.59L255,21.44a2.11,2.11,0,0,1,0,.25c0,.6,0,1.22,0,1.84,0,2.54.09,5,.13,7.52.07,3.18.15,6.34.22,9.47.18,6.25.4,12.4.64,18.52a5.24,5.24,0,0,1,0,.69c0,.12-.07.1-.08-.12-.55-7.72-1.27-14.39-1.63-23.12q-.12-3.29-.26-6.57l-.12-3.28-.06-1.57-.06-.36a12.49,12.49,0,0,0-.43-1.87l-.58.77c-.25.25-.5.53-.72.79l-.08.09,0,.05,0,0h0l-.08.09-1.41,1.44L247.62,29,236.19,40.86c-10.65,11-20.86,21.3-31.45,31.92-3.91,4-7.87,7.36-8.84,7.42-.58,0,.06-1.14,1.52-3l-1,1-1.59,1.49a36,36,0,0,1-3.8,3.15l-1.26.88c-1.8,1.07-4.42,3.08-6,3.88l.12-.41-.32.24a7.47,7.47,0,0,1-2.13,1.35l-.08-.26a4.37,4.37,0,0,1,.82-1.94c-.1,0-.08-.21,0-.47-.8.45-1.28.56-1-.14-.43.32-.44.19,0-.31.14-.17.32-.36.51-.55h0c-.25.16-.33.21-.66.44l-.61.56-1.92,1.8c-.81.68-1.35,1.06-1.35,1.06-1.13.51-1.13.51-1.14.25l.12-.2-.94.82-.36.26c-.1,0-.1,0-.24,0s-.08,0-.08,0c.28-.45.28-.45.27-.48l.17-.25.64-.71,1.11-.74.13-.26.3-.13-.2,0,.52-.42-.6.47c1.13-1.08,1.13-1.08,1.57-1.52s.84-.87.89-.91a.18.18,0,0,1-.09,0l2.4-2.27.32-.22a5.48,5.48,0,0,1,.53-.59l.62-.59.12-.14h0l.47-.55.1-.11h0l2.05-2.36,1-1-.33.26c-.21.16-.11-.08-.21,0-2.67,2.37-5.48,5.06-8.26,7.69a4.56,4.56,0,0,1-1.1.92c-.12,0,.17-.39.66-.89a226.34,226.34,0,0,1,17.84-17.89l4.57-4.38-.25.18,1.22-1.11.12-.12-1,.75-.65.58c-3.52,3.42-6.86,6.37-10.34,9.6-1.87,1.73-3.54,3.16-5.33,4.78-.45.43-.8.69-.8.58a4.18,4.18,0,0,1,.81-1C189.46,71.64,196,65.24,201,61.11c1-1,2.08-2,3-2.75l0,0-.74.53c.8-.75,1.3-1.08,2-1.75l-.4.12c3.92-3.74,8-7.92,11.77-11.26l.42-.39c1.43-1.63,2.87-3.27,4.67-5.1l-1.87,1.78c1.25-1.37,2.52-2.72,3.93-4.12a102.21,102.21,0,0,1,10.69-9.47L262.8.09V2A14.07,14.07,0,0,1,262.72,4c-.06.21-.12-.26-.13-1.11s0-1.48,0-2.22l-21.4,21.93,8.14-7.94,10.5-10.38L262,2.07v.75c0,1.25,0,2.55,0,3.84V25.32c0,4.07,0,8.16.11,12.4.16,7.23.3,13.56.45,20.78.27,10.12.53,19.35.54,29.35a8.46,8.46,0,0,1-.25,2.72c-.15.16-.29-.8-.31-2.14-.48-20.86-1.05-41.35-1-63.16,0-3.42,0-6.78,0-10.12a.45.45,0,0,1-.06.15c-.08.09-.16-.14-.23-.59q0,5.45-.09,11c.17,7.35.35,14.71.26,22.55-.07,5.38-.25,10.26-.42,15.23.1,6.31.2,12.61.3,19a2.47,2.47,0,0,1,0,.61c0,.1-.06,0-.07-.3-.19-4.38-.34-8.87-.46-13.4-.1.71-.22,1.14-.36,1.08s-.27-.61-.36-1.45V72a2.65,2.65,0,0,1-.12,1.11,2.34,2.34,0,0,1-.13-1.12l0-12.56c-.07-5-.14-10-.2-15a5.37,5.37,0,0,1-.34,1.45h0c0,.78,0,1.56,0,2.33.39,14.21.61,28.76.53,43.43a1.44,1.44,0,0,1-.05.53s-.06-.22-.06-.48q0-6.65,0-13.24v0c0,.17-.05.21-.08,0a4,4,0,0,1,0-.69c0-.2.06-.18.08,0-.05-8.2-.19-16.34-.39-24.37,0,7.46.06,14.93,0,22.39l.12,2.44a2.48,2.48,0,0,1,0,.61c0,.07-.06-.1-.07-.33l0-.68c0,1.41-.14,2.5-.31,2.47a7,7,0,0,1-.3-2.75c0-3.93,0-7.84-.06-11.75l0-1.27-.08-1.28c-.07,6.08-.15,12.16-.23,18.19a2.45,2.45,0,0,1-.11,1,2,2,0,0,1-.11-.93c-.24-10.64-.4-21.41-.51-32.22-.25-3.56-.51-7.12-.77-10.74,0,.45,0,.92,0,1.38,0,11.76.73,21.73.88,33.12a1.67,1.67,0,0,1,0,.56s-.06-.17-.06-.45c-.1-5.56-.36-10.63-.53-16.14-.15-4.57-.28-8.91-.48-13.16.07,8.68.39,17,.53,25.59a6.1,6.1,0,0,1,0,1,.48.48,0,0,1,0,.21c.09,1.07.14,2.24.19,3.44a2.45,2.45,0,0,1,0,.64C257.18,74.83,257.15,74.69,257.13,74.44ZM196,69.92l-.18.13.58-.5.92-.58Zm-8.77,10h0l-.53.34Zm58.51-61.5c-3.23,3.22-6.47,6.38-9.76,9.46l2.3-2.36ZM189.05,75.57c.94-.76,1.71-1.31,2.45-1.82.54-.58,1.11-1.17,1.71-1.76l4.72-4.59c-.26.14.12-.22.3-.41l.55-.59-5.05,4.77C192.19,72.62,190.54,74.22,189.05,75.57ZM177.93,87.15l-.16.12.21-.4Zm-.32.63.24-.22A.4.4,0,0,1,177.61,87.78Zm2.25-2-.36.25ZM184,86.9l.38-1.28L183.94,87Z" transform="translate(0 -0.09)"/></g></g></svg>